<svg width="39" height="42" viewBox="0 0 39 42" fill="none" xmlns="http://www.w3.org/2000/svg">
<path d="M36.3504 21.1319C36.3504 19.6406 36.2357 18.5524 35.9875 17.4238H19.8457V24.1548H29.3206C29.1296 25.8275 28.0981 28.3467 25.8057 30.0394L25.7736 30.2647L30.8773 34.4359L31.2309 34.4731C34.4783 31.3091 36.3504 26.6538 36.3504 21.1319Z" fill="#4285F4"/>
<path d="M19.8449 38.8659C24.4868 38.8659 28.3837 37.2536 31.2301 34.4726L25.8049 30.0388C24.3531 31.1069 22.4046 31.8526 19.8449 31.8526C15.2985 31.8526 11.4398 28.6886 10.0643 24.3154L9.86265 24.3335L4.55573 28.6664L4.48633 28.8699C7.31349 34.7949 13.1207 38.8659 19.8449 38.8659Z" fill="#34A853"/>
<path d="M10.0641 24.3163C9.70117 23.1878 9.49112 21.9785 9.49112 20.7291C9.49112 19.4795 9.70117 18.2704 10.045 17.1419L10.0354 16.9015L4.66197 12.499L4.48616 12.5872C3.32095 15.0459 2.65234 17.8069 2.65234 20.7291C2.65234 23.6512 3.32095 26.4121 4.48616 28.8708L10.0641 24.3163Z" fill="#FBBC05"/>
<path d="M19.845 9.60396C23.0733 9.60396 25.251 11.0751 26.4927 12.3045L31.3448 7.30659C28.3648 4.38443 24.4869 2.59082 19.845 2.59082C13.1208 2.59082 7.31351 6.66166 4.48633 12.5866L10.0452 17.1412C11.4398 12.768 15.2986 9.60396 19.845 9.60396Z" fill="#EB4335"/>
</svg>
