<svg width="145" height="145" viewBox="0 0 145 145" fill="none" xmlns="http://www.w3.org/2000/svg">
<g filter="url(#filter0_d_2605_4244)">
<path fill-rule="evenodd" clip-rule="evenodd" d="M30.5615 134.841C34.0024 137.279 37.3717 137.207 40.6692 134.626L72.4978 110.325L104.326 134.626C107.624 137.207 110.993 137.279 114.434 134.841C117.875 132.404 119.022 129.178 117.875 125.164L105.617 85.378L136.8 63.227C140.241 60.7897 141.282 57.5638 139.923 53.5494C138.558 49.535 135.796 47.5278 131.639 47.5278H93.1433L80.67 6.23668C79.9531 4.22947 78.8406 2.68679 77.3323 1.60863C75.8298 0.536213 74.2183 0 72.4978 0C70.7773 0 69.1658 0.536213 67.6633 1.60863C66.155 2.68679 65.0425 4.22947 64.3256 6.23668L51.8522 47.5278H13.3569C9.19911 47.5278 6.44063 49.535 5.08147 53.5494C3.71657 57.5638 4.75458 60.7897 8.1955 63.227L39.3789 85.378L27.1206 125.164C25.9736 129.178 27.1206 132.404 30.5615 134.841ZM97.7838 72.1022C95.7391 74.2868 92.0943 77.6354 86.6465 80.1617C85.0711 80.8924 79.658 83.2561 72.6214 83.4814C63.398 83.7767 54.0514 80.5498 46.7863 73.735L46.7999 73.7205C46.2342 73.1807 45.7355 72.6662 45.294 72.19C45.294 72.19 48.1722 66.1463 49.855 67.9616C50.4444 68.5973 51.747 69.7739 53.191 71.0347C58.8389 75.4179 65.6635 77.4814 72.4223 77.2651C78.2432 77.0786 82.7696 75.1039 84.0298 74.5194L84.0299 74.5193C88.5346 72.4304 91.5514 69.6593 93.2429 67.8521C94.9344 66.0448 97.7838 72.1022 97.7838 72.1022Z" fill="#E7B66B"/>
</g>
<defs>
<filter id="filter0_d_2605_4244" x="0.5" y="0" width="144" height="144.617" filterUnits="userSpaceOnUse" color-interpolation-filters="sRGB">
<feFlood flood-opacity="0" result="BackgroundImageFix"/>
<feColorMatrix in="SourceAlpha" type="matrix" values="0 0 0 0 0 0 0 0 0 0 0 0 0 0 0 0 0 0 127 0" result="hardAlpha"/>
<feOffset dy="4"/>
<feGaussianBlur stdDeviation="2"/>
<feComposite in2="hardAlpha" operator="out"/>
<feColorMatrix type="matrix" values="0 0 0 0 0 0 0 0 0 0 0 0 0 0 0 0 0 0 0.25 0"/>
<feBlend mode="normal" in2="BackgroundImageFix" result="effect1_dropShadow_2605_4244"/>
<feBlend mode="normal" in="SourceGraphic" in2="effect1_dropShadow_2605_4244" result="shape"/>
</filter>
</defs>
</svg>
